<svg width="58" height="60" viewBox="0 0 58 60" fill="none" xmlns="http://www.w3.org/2000/svg">
<path d="M49.0541 29.6149C48.737 29.4759 48.4726 29.2086 48.0709 28.9198C49.2233 28.2141 50.2912 27.6687 51.2321 26.9629C55.7996 23.573 58.041 19.0388 57.3009 13.2855C56.6243 7.99212 53.2621 4.77329 48.6418 2.75216C45.7131 1.46891 42.6153 0.880753 39.4012 0.891447C31.5879 0.923528 23.7746 0.859366 15.9613 0.923528C13.5719 0.944916 10.6221 -0.0816869 8.95156 1.40475C7.40794 2.78425 7.96829 5.81059 7.5771 8.09906C7.47137 8.75138 7.36564 9.393 7.21762 10.0346C6.84757 11.6601 7.43965 12.1734 9.08901 12.0878C15.1366 11.7884 21.1631 11.9595 27.1473 13.1251C27.8346 13.2535 28.7438 13.5636 29.1456 12.6653C31.1333 8.1846 35.0558 8.75138 38.7351 8.97594C43.4083 9.26468 48.0709 9.98116 53.0084 8.82623C51.8242 10.8581 50.2277 11.7563 48.3775 12.1199C46.1043 12.5797 43.7995 12.8578 41.5052 13.1893C37.7201 13.7347 36.8637 15.2532 38.5659 18.7714C40.1096 21.9582 40.8497 25.1449 40.7016 28.7915C40.5642 32.1173 41.4312 35.5928 43.3766 38.4266C44.9202 40.6723 44.5713 42.6934 43.4189 44.7359C42.0761 47.0993 40.173 48.8744 37.3184 49.1525C36.4725 49.238 35.5844 48.9172 35.0769 48.2007C33.4487 45.9336 31.0064 45.3883 28.5218 44.907C26.4812 44.5114 24.483 43.9018 22.9605 42.4689C21.6601 41.2498 20.5816 41.4957 19.2177 42.2015C11.9542 45.9871 6.28722 51.6334 1.16999 57.9214C0.747079 58.4454 -0.014161 58.8838 0.229013 59.8997C12.9587 59.8997 25.6777 60.0601 38.3862 59.8142C43.0488 59.7286 47.4894 58.1459 51.3273 55.1624C60.3353 48.1366 59.3838 33.9673 49.0436 29.6149" fill="white"/>
</svg>
