<svg width="138" height="16" viewBox="0 0 138 16" fill="none" xmlns="http://www.w3.org/2000/svg">
<path d="M28.8558 1.36732C28.973 0.954498 28.8761 0.8848 28.556 0.890161C27.4854 0.903565 26.4125 0.919649 25.3441 0.882119C24.9632 0.868716 24.8415 1.051 24.7401 1.44506C24.3637 2.8819 23.9692 4.31339 23.5545 5.73414C23.1668 7.06644 22.8986 8.45235 22.3757 9.72567C21.6927 11.3877 20.3877 12.1142 18.9294 11.6879C18.0774 11.4386 17.7077 10.7658 17.9016 9.74176C17.9917 9.26191 18.1315 8.7928 18.2622 8.32368C18.9519 5.87354 19.6439 3.4234 20.3607 0.890161C19.0488 0.890161 17.8385 0.892842 16.6304 0.890161C16.4162 0.890161 16.2652 0.92501 16.1841 1.21988C15.4065 4.08553 14.5116 6.91096 13.8602 9.81681C13.1683 12.905 14.284 14.8136 16.9076 15.5025C17.8836 15.7599 18.873 15.7786 19.8648 15.7331C23.0496 15.5803 25.2833 13.7976 26.3629 10.1948C27.2397 7.27017 28.0151 4.30534 28.8536 1.36196" fill="white"/>
<path d="M11.1915 7.82239C11.1239 7.78754 11.0675 7.72052 10.9819 7.64815C11.2275 7.47122 11.4552 7.33451 11.6558 7.15758C12.6295 6.30781 13.1073 5.1712 12.9496 3.729C12.8053 2.40206 12.0885 1.59518 11.1036 1.08853C10.4792 0.766849 9.81881 0.619412 9.13361 0.622093C7.46793 0.630135 5.80226 0.614051 4.13659 0.630135C3.62719 0.635496 2.99834 0.378151 2.64221 0.750765C2.31314 1.09657 2.4326 1.8552 2.3492 2.42887C2.32666 2.59239 2.30412 2.75323 2.27256 2.91407C2.19368 3.32153 2.3199 3.45021 2.67151 3.42876C3.96078 3.3537 5.24553 3.39659 6.52127 3.68879C6.66778 3.72096 6.86162 3.79869 6.94727 3.57352C7.37101 2.45031 8.20723 2.59239 8.99161 2.64868C9.98786 2.72106 10.9819 2.90067 12.0345 2.61116C11.782 3.12048 11.4417 3.34566 11.0472 3.4368C10.5626 3.55207 10.0713 3.62177 9.58214 3.70487C8.77523 3.84159 8.59266 4.22224 8.95555 5.10418C9.28462 5.90303 9.4424 6.70187 9.41085 7.61598C9.38154 8.44967 9.56637 9.32089 9.9811 10.0313C10.3102 10.5942 10.2358 11.1009 9.99011 11.6129C9.70386 12.2053 9.29815 12.6503 8.68958 12.72C8.50926 12.7414 8.31993 12.661 8.21174 12.4814C7.86463 11.9131 7.34397 11.7764 6.81429 11.6558C6.37927 11.5566 5.95328 11.4038 5.62871 11.0446C5.35147 10.739 5.12157 10.8006 4.83081 10.9775C3.28234 11.9265 2.07422 13.3419 0.983302 14.9181C0.893144 15.0495 0.730859 15.1594 0.7827 15.4141C3.49646 15.4141 6.20797 15.4543 8.91723 15.3926C9.91122 15.3712 10.8579 14.9744 11.6761 14.2265C13.5964 12.4653 13.3936 8.91343 11.1892 7.82239" fill="white"/>
<path d="M31.6687 11.3636C31.2224 11.369 31.1278 11.2537 31.281 10.7256C31.813 8.90544 32.3066 7.0665 32.8115 5.23292C33.2036 3.80948 33.5936 2.38604 34.0038 0.89558C32.7979 0.89558 31.671 0.919706 30.544 0.884858C30.1202 0.871454 29.9264 1.01889 29.7912 1.5175C28.8535 5.0131 27.8821 8.49798 26.9264 11.9855C26.6266 13.0766 26.3381 14.1676 26.0248 15.331C29.5703 15.331 33.0369 15.331 36.5057 15.3337C36.6928 15.3337 36.8032 15.2586 36.8573 15.0496C37.1796 13.8433 37.5042 12.6369 37.8491 11.3529H37.1391C35.3156 11.3529 33.4899 11.3395 31.6664 11.3609" fill="white"/>
<path d="M49.142 11.3423C47.3186 11.3718 45.4929 11.3531 43.6694 11.3531C43.154 11.3531 42.9745 11.068 43.1307 10.4979C43.967 7.48216 44.7987 4.4664 45.6439 1.45332C45.7521 1.06462 45.7949 0.866254 45.3396 0.882338C44.2893 0.917186 43.2367 0.911825 42.1863 0.882338C41.8347 0.871615 41.7153 1.04318 41.6161 1.40775C40.4057 5.86036 39.1863 10.313 37.9489 14.7575C37.8046 15.2749 37.9264 15.3392 38.3208 15.3365C39.9459 15.3178 41.5733 15.3285 43.1984 15.3285C44.8235 15.3285 46.4508 15.3205 48.0759 15.3365C48.4163 15.3392 48.6079 15.2615 48.7115 14.8219C48.9414 13.8488 49.2187 12.8918 49.4959 11.9348C49.6199 11.5059 49.5883 11.3343 49.142 11.3397" fill="white"/>
<path d="M96.6704 0.40958C95.2234 0.431025 93.7741 0.439066 92.3248 0.404217C91.9258 0.396175 91.732 0.5731 91.5381 0.959117C90.3503 3.32616 89.1422 5.67979 87.9341 8.03074C87.8304 8.23179 87.7763 8.59905 87.4855 8.46233C87.2511 8.35242 87.3751 8.04415 87.3819 7.82969C87.4495 5.59133 87.5171 3.35296 87.614 1.11728C87.6365 0.589185 87.5577 0.37741 87.0573 0.393494C85.7883 0.439066 84.5171 0.433705 83.2481 0.393494C82.8198 0.380091 82.6733 0.573101 82.5561 1.02077C81.8258 3.78187 81.073 6.53224 80.3247 9.28798C79.8288 11.1189 79.3307 12.9498 78.8168 14.8397C79.9731 14.8397 81.064 14.8182 82.1527 14.8504C82.5358 14.8611 82.7049 14.7164 82.8198 14.2767C83.2887 12.478 83.7913 10.6927 84.2804 8.90196C84.3345 8.70359 84.3503 8.44893 84.5982 8.48378C84.8912 8.52399 84.7605 8.8135 84.756 8.98775C84.7244 10.757 84.6884 12.5236 84.6275 14.2901C84.6117 14.7298 84.7244 14.8638 85.0896 14.8477C85.7432 14.8155 86.4014 14.8048 87.0528 14.8504C87.4698 14.8799 87.6816 14.6922 87.88 14.2714C88.7297 12.4887 89.611 10.7275 90.4856 8.96094C90.5983 8.73576 90.6839 8.3283 90.9792 8.51326C91.1708 8.6339 90.9589 8.93413 90.9048 9.13786C90.445 10.8642 89.9807 12.5906 89.4961 14.3089C89.3856 14.7003 89.3969 14.8557 89.7913 14.845C90.8034 14.8209 91.8154 14.8263 92.8274 14.845C93.1092 14.8504 93.2512 14.7485 93.3391 14.4215C94.5517 9.91794 95.7733 5.41708 97.0017 0.916228C97.1144 0.500723 97.0333 0.398856 96.6727 0.404217" fill="white"/>
<path d="M125.4 0.932134C125.553 0.401359 125.373 0.40136 125.037 0.406721C123.987 0.420124 122.934 0.430846 121.884 0.401359C121.537 0.390636 121.408 0.543435 121.307 0.913369C120.728 3.06327 120.126 5.20513 119.531 7.34968C119.321 8.10831 119.127 8.87766 118.785 9.57464C118.113 10.9311 116.88 11.5717 115.584 11.242C114.628 10.9981 114.236 10.2984 114.48 9.1779C114.644 8.42731 114.867 7.69548 115.072 6.96098C115.677 4.80035 116.287 2.63972 116.914 0.414763C115.607 0.414763 114.358 0.417443 113.112 0.412082C112.895 0.412082 112.803 0.524671 112.737 0.76057C111.969 3.57796 111.108 6.36587 110.438 9.21811C109.704 12.3518 110.81 14.3275 113.481 15.0271C114.399 15.2684 115.327 15.2925 116.26 15.2604C119.695 15.137 121.832 13.349 122.984 9.4969C123.834 6.66074 124.577 3.78169 125.398 0.932134" fill="white"/>
<path d="M77.4539 10.69C77.3727 10.3147 77.4494 10.1431 77.7131 9.95817C78.5831 9.34698 79.2728 8.51597 79.7552 7.45174C81.2901 4.06337 80.0685 1.06101 76.8926 0.495386C75.6552 0.27557 74.3975 0.460537 73.3719 0.409604C72.4952 0.409604 71.8415 0.393519 71.1879 0.414965C70.5996 0.433729 69.8693 0.130812 69.4613 0.538275C69.0849 0.91357 69.0331 1.76066 68.8573 2.40671C67.7912 6.3205 66.7453 10.2423 65.6567 14.1481C65.4808 14.778 65.589 14.8799 66.1029 14.8558C67.0924 14.8129 68.0842 14.8209 69.0759 14.8558C69.4253 14.8665 69.5605 14.7164 69.6529 14.3464C69.8806 13.4216 70.142 12.5075 70.3787 11.588C70.4576 11.2851 70.5703 11.1243 70.8746 11.135C71.686 11.1618 72.4997 11.1591 73.3133 11.135C73.6357 11.1269 73.7664 11.269 73.825 11.639C73.967 12.5397 74.1563 13.4297 74.2983 14.3304C74.3614 14.7271 74.5034 14.8638 74.8528 14.8531C75.8423 14.8236 76.834 14.829 77.8258 14.8504C78.1796 14.8585 78.2675 14.7485 78.1774 14.325C77.9227 13.116 77.7198 11.8936 77.4561 10.6873M75.8648 6.80034C75.4907 7.30162 74.9993 7.57773 74.4561 7.60454C73.4892 7.65011 72.5222 7.61794 71.4809 7.61794C71.7581 6.58588 72.0241 5.61012 72.281 4.63167C72.3532 4.35556 72.529 4.37164 72.7093 4.37164C73.4801 4.37164 74.2532 4.3636 75.0241 4.37969C75.4929 4.39041 75.9753 4.47887 76.1533 5.0847C76.3314 5.69322 76.239 6.29369 75.8648 6.79766" fill="white"/>
<path d="M134.035 0.495386C132.798 0.27557 131.54 0.460537 130.514 0.409604C129.638 0.409604 128.984 0.393519 128.33 0.414965C127.742 0.433729 127.012 0.130812 126.604 0.538275C126.227 0.91357 126.176 1.76066 126 2.40671C124.934 6.3205 123.888 10.2423 122.799 14.1481C122.623 14.778 122.731 14.8799 123.245 14.8558C124.235 14.8129 125.227 14.8209 126.218 14.8558C126.568 14.8665 126.703 14.7164 126.795 14.3464C127.023 13.4216 127.284 12.5075 127.521 11.588C127.6 11.2851 127.71 11.1243 128.017 11.135C128.828 11.1618 129.642 11.1591 130.456 11.135C130.778 11.1269 130.909 11.269 130.967 11.639C131.109 12.5397 131.299 13.4297 131.441 14.3304C131.504 14.7271 131.646 14.8638 131.995 14.8531C132.985 14.8236 133.976 14.829 134.968 14.8504C135.322 14.8585 135.41 14.7512 135.32 14.3277C135.065 13.1187 134.862 11.8963 134.599 10.69C134.517 10.3147 134.594 10.1431 134.858 9.95817C135.728 9.34698 136.418 8.51597 136.9 7.45174C138.435 4.06337 137.213 1.06101 134.037 0.495386M132.946 6.87808C132.532 7.36596 132.022 7.59382 131.452 7.62331C131.037 7.64207 130.62 7.62599 130.206 7.62599C129.829 7.62867 129.453 7.6099 129.079 7.63403C128.75 7.65547 128.599 7.59114 128.736 7.14078C128.973 6.36875 129.191 5.58867 129.381 4.80055C129.462 4.46011 129.604 4.36092 129.883 4.36896C130.636 4.38773 131.387 4.36896 132.139 4.38237C132.629 4.39309 133.138 4.47619 133.309 5.12223C133.478 5.76023 133.37 6.38215 132.946 6.88076" fill="white"/>
<path d="M106.389 0.232561C105.291 -0.0676748 104.198 -0.0569512 103.085 0.111931C99.3117 0.688277 96.2892 4.30451 95.879 8.77052C95.622 11.5665 96.8459 13.9415 99.0052 14.8208C99.8166 15.1505 100.657 15.3033 101.548 15.2631C101.996 15.2926 102.467 15.2122 102.938 15.1371C106.608 14.5527 109.549 11.2073 110.065 6.86724C110.43 3.79786 109.283 1.02336 106.387 0.22988M101.557 11.0545C100.484 10.7757 99.8797 9.88568 99.8865 8.59627C99.9 5.90755 102.285 3.61557 104.46 4.20264C105.512 4.48679 106.087 5.34193 106.089 6.61793C106.092 9.32006 103.739 11.6228 101.557 11.0545Z" fill="white"/>
<path d="M64.5654 0.98868C64.5497 0.535646 64.446 0.393571 64.056 0.398932C62.5098 0.425739 60.9636 0.428419 59.4174 0.396251C59.0049 0.388209 58.7795 0.570495 58.5609 0.953832C56.618 4.36633 54.6593 7.77079 52.7074 11.1753C52.0289 12.3574 51.3505 13.5396 50.5999 14.8451C51.6119 14.8451 52.5135 14.7459 53.3926 14.8692C54.497 15.0247 55.2588 14.6494 55.6668 13.3895C55.8066 12.9579 56.0748 12.84 56.4647 12.8507C57.5737 12.8828 58.6849 12.8614 59.7961 12.8614C61.029 12.8614 61.0425 12.8614 61.0808 14.3304C61.0921 14.7272 61.1845 14.8585 61.5226 14.8505C62.5729 14.829 63.6233 14.829 64.6759 14.8505C65.014 14.8585 65.1199 14.7406 65.1019 14.3304C64.9125 9.88317 64.7322 5.43592 64.5677 0.985999M60.6616 9.33095C59.7915 9.3095 58.9215 9.32291 57.914 9.32291C58.7502 7.84317 59.5211 6.48407 60.2852 5.12228C60.4227 4.87566 60.621 4.89711 60.8126 4.93196C61.047 4.97217 60.9749 5.21611 60.9794 5.38499C61.0087 6.53768 61.0222 7.69037 61.0583 8.84038C61.0695 9.20228 60.9794 9.33899 60.6616 9.33363" fill="white"/>
</svg>
